<svg xmlns="http://www.w3.org/2000/svg" xmlns:xlink="http://www.w3.org/1999/xlink" viewBox="0 0 2132.4 1425.56"><defs><style>.cls-1,.cls-11,.cls-12,.cls-13,.cls-14,.cls-9{stroke:#fff;stroke-miterlimit:10;}.cls-1{stroke-width:3px;fill:url(#Gradiente_sem_nome_94);}.cls-2{font-size:465.73px;font-family:Arboria-Medium, Arboria;font-weight:500;}.cls-13,.cls-2,.cls-4,.cls-8,.cls-9{fill:#fff;}.cls-3{letter-spacing:-0.02em;}.cls-4{font-size:177.76px;}.cls-4,.cls-8{font-family:Arboria-Bold, Arboria;font-weight:700;}.cls-5{letter-spacing:0em;}.cls-6{letter-spacing:0em;}.cls-7{letter-spacing:0em;}.cls-8{font-size:124.4px;}.cls-11,.cls-9{stroke-width:1.71px;}.cls-10{fill:url(#Gradiente_sem_nome_4);}.cls-11{fill:url(#Gradiente_sem_nome_5);}.cls-12{stroke-linecap:round;fill:url(#Gradiente_sem_nome_15);}.cls-12,.cls-14{stroke-width:6.86px;}.cls-13{stroke-width:5.14px;}.cls-14{fill:url(#Gradiente_sem_nome_2);}.cls-15{fill:#e74519;}.cls-16{fill:#636361;}</style><radialGradient id="Gradiente_sem_nome_94" cx="1066.2" cy="712.78" r="905.4" gradientUnits="userSpaceOnUse"><stop offset="0" stop-color="#ffde53"/><stop offset="0" stop-color="#fed74e"/><stop offset="0.57" stop-color="#fdc438"/><stop offset="0.68" stop-color="#f9b226"/><stop offset="0.83" stop-color="#f39207"/><stop offset="1" stop-color="#ef7738"/></radialGradient><linearGradient id="Gradiente_sem_nome_4" x1="177.57" y1="1017.08" x2="487.79" y2="1017.08" gradientTransform="translate(1539.24 560.14) rotate(90)" gradientUnits="userSpaceOnUse"><stop offset="0" stop-color="#9ecfa8"/><stop offset="0.03" stop-color="#9acda3"/><stop offset="0.19" stop-color="#88c58c"/><stop offset="0.34" stop-color="#7dc07e"/><stop offset="0.47" stop-color="#79be79"/><stop offset="0.54" stop-color="#6ebb71"/><stop offset="0.84" stop-color="#44af52"/><stop offset="1" stop-color="#34aa46"/></linearGradient><linearGradient id="Gradiente_sem_nome_5" x1="353.84" y1="923.58" x2="493.92" y2="923.58" gradientTransform="translate(218.9 -133.41) rotate(1.65)" gradientUnits="userSpaceOnUse"><stop offset="0" stop-color="#30bad3"/><stop offset="0.13" stop-color="#40bdd4"/><stop offset="0.39" stop-color="#6ac5d7"/><stop offset="0.39" stop-color="#6bc5d7"/><stop offset="0.83" stop-color="#9ad4e2"/></linearGradient><linearGradient id="Gradiente_sem_nome_15" x1="177" y1="914.99" x2="423.88" y2="914.99" gradientTransform="translate(218.9 -133.41) rotate(1.65)" gradientUnits="userSpaceOnUse"><stop offset="0" stop-color="#ed6b1f"/><stop offset="0.19" stop-color="#ef7b15"/><stop offset="0.39" stop-color="#f39207"/><stop offset="1" stop-color="#fab434"/></linearGradient><linearGradient id="Gradiente_sem_nome_2" x1="-61.1" y1="621.92" x2="55.86" y2="621.92" gradientTransform="matrix(1, 0.05, -0.05, 0.96, 457.81, 76.2)" gradientUnits="userSpaceOnUse"><stop offset="0" stop-color="#ffeea4"/><stop offset="0.03" stop-color="#ffeca0"/><stop offset="0.19" stop-color="#ffe389"/><stop offset="0.34" stop-color="#ffdd7b"/><stop offset="0.47" stop-color="#ffdb76"/><stop offset="0.5" stop-color="#ffda72"/><stop offset="0.83" stop-color="#feca48"/><stop offset="1" stop-color="#fdc438"/></linearGradient></defs><g id="Camada_2" data-name="Camada 2"><g id="Camada_1-2" data-name="Camada 1"><rect class="cls-1" x="1.5" y="1.5" width="2129.4" height="1422.56"/><text class="cls-2" transform="translate(859.8 764.17)"><tspan class="cls-3">ov</tspan><tspan x="511.84" y="0">os</tspan></text><text class="cls-4" transform="translate(880.53 937.59)">t<tspan class="cls-5" x="67.72" y="0">r</tspan><tspan x="134.56" y="0">es amo</tspan><tspan class="cls-6" x="730.56" y="0">r</tspan><tspan class="cls-7" x="797.4" y="0">es</tspan></text><text class="cls-8" transform="translate(1038.15 902.56)">ˆ</text><path class="cls-9" d="M692.93,500.89c-56.69-89.4-123.4-142.77-178.44-142.77-55.54,0-122.43,53.37-178.94,142.79-55.21,87.35-88.17,188.86-88.17,271.53,0,84.51,27.05,154.18,78.25,201.49,47.37,43.78,112.67,66.92,188.86,66.92S656,1017.71,703.35,973.93c51.19-47.31,78.25-117,78.25-201.49C781.6,690,748.45,588.45,692.93,500.89Z"/><ellipse class="cls-10" cx="522.16" cy="892.82" rx="78.08" ry="155.11" transform="translate(-385.33 1389.06) rotate(-88.35)"/><path class="cls-11" d="M650.29,680.16a44.58,44.58,0,0,1,2.32,25.27c-3.6,17.42-16.76,26.49-19.58,28.35,3.91-5.87,9.93-16.64,10.93-30a51.94,51.94,0,0,0-.54-12.28c-1.4-8.56-5-16.8-6.39-16.49-1.26.27,1.05,6.68-1,16.12-2.17,10-7.87,17.19-11,21.13a76.57,76.57,0,0,1-7.84,8.38,106.37,106.37,0,0,1-17.56,13.94,89.41,89.41,0,0,1-11.76,6.19,85.2,85.2,0,0,1-13.41,4.47L563,747l-8.74-.11-3.86.68-2.89.19,12.56,1.57,5.6,1.54,3.91,1.46,4.1,1.89,5.76,3.43,3,2,3.18,2.7,2.69,2.78,4.57,6.48,2,4.13,1.52,4.37,1.32,8.28-.24,4.21-1,5.52L594.69,804l-2.21,5-4,6.71-4.85,5.82L579,825.84l-5.68,4.37-5.4,3.36-4.62,2.27-4.74,1.91-4,1.64-3.81,1.21,5.52-.68,5.72-.24,4.07.12,4.5.36,8.85,1.49,6.84,2.21L591,846l6.51,3.78,6.92,6.07,4.11,5.52,3.22,6.63,2.07,8.21.29,6.56-.73,5.68-2.19,7-3.41,7L604,907.84l-4.92,5.47L592.4,919l-8.3,5.31-2.41,1.26-5.41,2.9,10.21-3.63,8.47-3.63,8.22-4.1,21.25-13.69,9.66-8L650.76,878l10.27-14,11.69-21.28,4.67-11.51,4.71-15.54,1.28-5.62.87-4.49.72-4.34,1-7.89.62-8.41.17-7.44-.22-8.12-.42-5.84-.75-6.52-.57-3.75-1.07-5.83-1-4.64-1-3.9-1-3.68-2.16-6.64-1.86-5-2.53-6-2.38-5.07-3.56-6.79-2.39-4.12-2.61-4.21-2.76-4.14-5.15-7-4.94-6.08"/><path class="cls-12" d="M553.11,840.63c.63-.09,2-.3,2.69-.38,2.53-.33,4.12-.18,12.28.06h0c2,.15,4.16.39,6.46.76a52.1,52.1,0,0,1,13.72,4.18c4.59,2.14,13.66,6.34,19.83,16.46a38.09,38.09,0,0,1,5.61,20.08,38.9,38.9,0,0,1-3.56,15.49c-5,11.93-13.76,18.68-18.2,22a70.17,70.17,0,0,1-8.3,5.32c-10.1,5.52-19.36,7.42-26,8.73-4.17.82-7.75,1.28-9.64,1.52-3,.38-7.26.83-12.37,1.07-2.46.12-5.65.21-9.38.16a149.78,149.78,0,0,1-20.72-1.7,164.83,164.83,0,0,1-23.45-5.55c-33.18-10.6-58.47-32.66-61.25-35.13a149,149,0,0,1-27-32.12,145.07,145.07,0,0,1-7.44-13.51c-1.47-3-3-6.16-4.42-9.62-1.8-4.24-3-7.49-3.31-8.42-.9-2.51-2.06-5.74-3.23-10.11-.69-2.57-1.12-4.54-1.5-6.28-.86-3.94-1.34-6.91-1.81-9.76-.49-3-1-6.23-1.46-10.52-.27-2.58-.44-4.74-.54-6.26-.24-3.65-.3-6.42-.32-7.17,0-2.1-.05-5.05.1-8.58.06-1.61.23-4.95.67-9.23.71-6.85,1.72-11.95,1.95-13.1.66-3.29,1.3-5.76,2.59-10.69s2-7.31,2.56-8.91c.32-1,1-2.94,1.93-5.46.43-1.13.84-2.14,1.46-3.67.52-1.3,1.13-2.8,1.48-3.64,1.46-3.5,3-6.58,3.84-8.26.92-1.85,2.56-5,4.75-8.83.84-1.45,1.56-2.65,2-3.43.85-1.4,2.05-3.31,3.53-5.53.66-1,2-2.94,3.65-5.26,3.41-4.72,6.45-8.38,8-10.21,4.26-5,8.06-8.88,10.67-11.43,3.07-3,5.69-5.29,7.36-6.73,2.2-1.89,4-3.33,4.94-4.08s3.43-2.65,5.72-4.33c1-.71,1.61-1.16,2.17-1.55s1.16-.8,2.21-1.49c0,0,1.27-.86,2.22-1.47l.89-.57.11-.06.12-.08.11-.08.09-.06.11-.07s.05,0,.06,0,0,0,0,.07a.45.45,0,0,1,0,.08.54.54,0,0,1,0,.11,2.33,2.33,0,0,0-.05.35c-.06.41-.09.61-.11.72,0,.36,0,.25-.12.95,0,.26-.06.47-.07.54s-.08.59-.13,1.21c0,0-.16,1.45-.27,2.92a108.59,108.59,0,0,0,.05,14.48,94.52,94.52,0,0,0,2.37,14.75,93,93,0,0,0,7.39,19.53,96.31,96.31,0,0,0,6.95,11.42,85.09,85.09,0,0,0,16,17.71,83.65,83.65,0,0,0,13,8.66A98.54,98.54,0,0,0,508,744.55a67.47,67.47,0,0,0,16.69,3.65c3.82.28,6.79.59,8.66.66a142,142,0,0,0,14.57-.34c12.21-.46,22.41,4.55,25.25,6,3.9,2,11.85,6.09,17.64,14.75A38.89,38.89,0,0,1,596,780.35a38.1,38.1,0,0,1,1.25,10.28,49.8,49.8,0,0,1-12.55,29.54c-2.07,2.34-4.54,4.6-4.54,4.6a67.18,67.18,0,0,1-7.26,5.76,73,73,0,0,1-7.42,4.47,60.66,60.66,0,0,1-9.72,4.25c-.86.28-1.87.59-2.81.87"/><path class="cls-13" d="M556.21,840.87c0,.09.62.18,1.17.28a29.51,29.51,0,0,1,4.89,1.45c2.09.73,3.58,1.39,6,2.45,3,1.36,4.53,2,5.83,2.76a77.76,77.76,0,0,1,7.1,4.87c1.49,1.09,2.69,2,4.09,3.23.58.51,1.34,1.19,2.28,2.14a38.22,38.22,0,0,1,4,4.88c.89,1.29,1.43,2.23,2.34,3.8a48.73,48.73,0,0,1,3.85,7.68,42.3,42.3,0,0,1,1.67,5.75,36.37,36.37,0,0,1,.7,4.16,39.55,39.55,0,0,1,.15,5.29,42.79,42.79,0,0,1-.38,6.11,37.69,37.69,0,0,1-1.5,6.28,39,39,0,0,1-1.66,4.3c-.51,1.13-1.09,2.18-2.26,4.29s-1.64,3-2.36,4.08a37.48,37.48,0,0,1-2.55,3.56,29.4,29.4,0,0,1-3.29,3.48c-1.25,1.13-2.11,1.68-2.06,1.75a47.25,47.25,0,0,0,4.77-2.87c1.53-1,2.3-1.47,3-2a45.34,45.34,0,0,0,4.49-3.71c1.46-1.33,2.6-2.51,3.36-3.32a41.14,41.14,0,0,0,3.59-4.25c.84-1.15,1.39-2.08,2.46-3.87a62.45,62.45,0,0,0,3.44-6.22,40.4,40.4,0,0,0,2.33-6.68,35.86,35.86,0,0,0,1.11-6.49,37.48,37.48,0,0,0-.47-8.72,38.76,38.76,0,0,0-1.83-7,36.06,36.06,0,0,0-7.84-12.46,37.29,37.29,0,0,0-5.11-4.35,51.66,51.66,0,0,0-11.26-6.36,58.48,58.48,0,0,0-5.87-2,59.29,59.29,0,0,0-5.91-1.32c-.41-.07-2.17-.37-4.53-.61-.83-.08-2.45-.18-5.67-.37-2.32-.13-3.08-.17-4.2-.18C559.86,840.7,556.22,840.66,556.21,840.87Z"/><path class="cls-13" d="M555.33,838.21c.44.7,6.58-2.37,7.89-3,2.36-1.17,4.13-2.26,5.72-3.23,1.27-.78,3.56-2.19,6.36-4.28a46.11,46.11,0,0,0,6-4.93,56.47,56.47,0,0,0,5.83-7.27,48.93,48.93,0,0,0,2.9-4.33,46.67,46.67,0,0,0,2.22-4.36,38.85,38.85,0,0,0,1.53-3.68c.17-.48.15-.46,1.12-3.77.66-2.23.77-2.58.91-3.29a22,22,0,0,0,.36-3.16A34.54,34.54,0,0,0,594.37,779a48.53,48.53,0,0,0-3.63-8.24,30.29,30.29,0,0,0-1.73-2.9,24.78,24.78,0,0,0-1.9-2.41,31.71,31.71,0,0,0-3.5-3.43c-.73-.61-.63-.47-2.5-2-1.54-1.23-1.53-1.26-2.1-1.68a28.18,28.18,0,0,0-3.2-2c-.47-.27-1.66-.94-3.27-1.72-.53-.26-2-1-3.76-1.67a55.15,55.15,0,0,0-9.33-2.78,54.44,54.44,0,0,0-7.7-1c-4.63-.29-4.91.23-8.26,0-.17,0-.7-.12-.79.07s.44.76,1,1.08a7.23,7.23,0,0,0,1.48.45c.59.17,1,.32,1.5.47l1.3.47c.91.33,1.59.6,1.83.7.84.34,1.51.64,1.89.81.79.36,1.48.68,2,1,1,.49,1.72.89,2,1.07,1.26.69,2.25,1.31,2.87,1.71,1.45.92,2.54,1.71,3,2a48.3,48.3,0,0,1,4.19,3.49,45,45,0,0,1,3.18,3.26,43.29,43.29,0,0,1,3.36,4.29,44,44,0,0,1,3.52,6.12,41.67,41.67,0,0,1,2.06,5.22,43.05,43.05,0,0,1,1.36,5.42c.17.92.39,2.27.54,3.92.1,1.1.18,2.52.18,4.16a45.61,45.61,0,0,1-.31,5,47.89,47.89,0,0,1-1.05,5.75,51.43,51.43,0,0,1-2.59,7.64,54.79,54.79,0,0,1-5,9C564.15,832.54,554.78,837.35,555.33,838.21Z"/><path class="cls-14" d="M432.88,733.23c-1.81,4.51-4.45,11.12-10.25,13.46-6,2.41-12.23-1-12.57-1.23a21,21,0,0,1-5.52-5c-3.12-3.83-3.43-6.56-5.48-6.82-.5-.06-1.31,0-4.54,2.62-2.7,2.19-4.34,4.05-5.3,4.89-4.41,3.85-6.67,5.82-10.29,7.35-2.34,1-5.6,2.28-9.28,1.26a10.25,10.25,0,0,1-3.36-1.64c-4.25-3.1-6.68-7.36-5.52-12.54a131,131,0,0,1,4.64-15c3.37-9.53,6.48-19.07,6.18-29.34a5.25,5.25,0,0,1,1.75-3.91c9.34-6.73,12.53-16.83,7.82-27.24-3.2-7.05-7.12-13.81-10.6-20.74-3.85-7.67-4.31-16-3.33-24.1.76-6.35,5.4-11.43,11.48-14.3,4.61-2.16,9.62-4.35,14.62-4.78,17.95-1.53,35.58-.73,51,10.29,9.32,6.66,13.61,16.17,16,26.48,3.34,14.52,3.47,20.67,10.36,49.48.86,3.59,1.62,7.2,2.53,10.78,3.91,15.38,6.15,19.26,5.24,26.41-.4,3.15-.9,7.71-4.32,11.55-5.72,6.41-16.85,8.11-24,4.6-7.81-3.85-10.66-11.61-13.91-10.48C434.54,725.86,434.9,728.18,432.88,733.23Z"/><path class="cls-15" d="M444.06,601.81c-25.13-11-50-13.78-74.94,1.27-6.3-3.83-12.09-8.74-14.12-16.5-1.53-5.86-.91-11.53,3.7-16.1a11.84,11.84,0,0,1,16.42-.62c2.16,1.85,3.7,4.36,5.69,6.42.84.87,2.3,2,3.15,1.83s1.87-1.85,2-3c.68-4.35.43-8.92,1.68-13.08,2.06-6.83,5.56-13,13.37-15.33a18.86,18.86,0,0,1,21.44,8.8c2.05,3.87,2.82,8.34,4.34,12.49.56,1.53,1.31,3.47,2.58,4.14.79.41,2.76-1.12,4.14-1.89,2.61-1.47,5-3.57,7.78-4.43,9.57-2.93,16,3.1,14.15,12.68A51.11,51.11,0,0,1,444.06,601.81Z"/><path class="cls-15" d="M373.39,650.68c2.43,6.1,6.36,12.08,7,18.34,1.34,13.36-8.79,20-21.6,16.13-5.24-1.58-6.54-6.32-3.35-11.3a37.11,37.11,0,0,1,6.11-7.46c4.78-4.38,8.55-9.28,10.38-15.49Z"/><path class="cls-16" d="M367.92,641.28,342.23,637c6.54-5.33,13.67-9.77,22.91-10Z"/><ellipse class="cls-16" cx="397.21" cy="623.11" rx="3.87" ry="5.57"/></g></g></svg>