<svg xmlns="http://www.w3.org/2000/svg" xmlns:xlink="http://www.w3.org/1999/xlink" viewBox="0 0 1626.71 701.84"><defs><style>.cls-1{font-size:465.73px;font-family:Arboria-Medium, Arboria;font-weight:500;}.cls-1,.cls-12,.cls-3,.cls-7,.cls-8{fill:#fff;}.cls-2{letter-spacing:-0.02em;}.cls-3{font-size:177.76px;}.cls-3,.cls-7{font-family:Arboria-Bold, Arboria;font-weight:700;}.cls-4{letter-spacing:0em;}.cls-5{letter-spacing:0em;}.cls-6{letter-spacing:0em;}.cls-7{font-size:124.4px;}.cls-10,.cls-11,.cls-12,.cls-13,.cls-8{stroke:#fff;stroke-miterlimit:10;}.cls-10,.cls-8{stroke-width:1.71px;}.cls-9{fill:url(#Gradiente_sem_nome_4);}.cls-10{fill:url(#Gradiente_sem_nome_5);}.cls-11{stroke-linecap:round;fill:url(#Gradiente_sem_nome_15);}.cls-11,.cls-13{stroke-width:6.86px;}.cls-12{stroke-width:5.14px;}.cls-13{fill:url(#Gradiente_sem_nome_2);}.cls-14{fill:#e74519;}.cls-15{fill:#636361;}</style><linearGradient id="Gradiente_sem_nome_4" x1="-68.95" y1="659.82" x2="241.27" y2="659.82" gradientTransform="translate(935.46 449.4) rotate(90)" gradientUnits="userSpaceOnUse"><stop offset="0" stop-color="#9ecfa8"/><stop offset="0.03" stop-color="#9acda3"/><stop offset="0.19" stop-color="#88c58c"/><stop offset="0.34" stop-color="#7dc07e"/><stop offset="0.47" stop-color="#79be79"/><stop offset="0.54" stop-color="#6ebb71"/><stop offset="0.84" stop-color="#44af52"/><stop offset="1" stop-color="#34aa46"/></linearGradient><linearGradient id="Gradiente_sem_nome_5" x1="107.32" y1="566.32" x2="247.4" y2="566.32" gradientTransform="translate(208.51 -126.46) rotate(1.65)" gradientUnits="userSpaceOnUse"><stop offset="0" stop-color="#30bad3"/><stop offset="0.13" stop-color="#40bdd4"/><stop offset="0.39" stop-color="#6ac5d7"/><stop offset="0.39" stop-color="#6bc5d7"/><stop offset="0.83" stop-color="#9ad4e2"/></linearGradient><linearGradient id="Gradiente_sem_nome_15" x1="-69.52" y1="557.73" x2="177.36" y2="557.73" gradientTransform="translate(208.51 -126.46) rotate(1.65)" gradientUnits="userSpaceOnUse"><stop offset="0" stop-color="#ed6b1f"/><stop offset="0.19" stop-color="#ef7b15"/><stop offset="0.39" stop-color="#f39207"/><stop offset="1" stop-color="#fab434"/></linearGradient><linearGradient id="Gradiente_sem_nome_2" x1="-307.62" y1="264.66" x2="-190.66" y2="264.66" gradientTransform="matrix(1, 0.05, -0.05, 0.96, 438.61, 76.26)" gradientUnits="userSpaceOnUse"><stop offset="0" stop-color="#ffeea4"/><stop offset="0.03" stop-color="#ffeca0"/><stop offset="0.19" stop-color="#ffe389"/><stop offset="0.34" stop-color="#ffdd7b"/><stop offset="0.47" stop-color="#ffdb76"/><stop offset="0.5" stop-color="#ffda72"/><stop offset="0.83" stop-color="#feca48"/><stop offset="1" stop-color="#fdc438"/></linearGradient></defs><g id="Camada_2" data-name="Camada 2"><g id="Camada_1-2" data-name="Camada 1"><text class="cls-1" transform="translate(613.28 406.91)"><tspan class="cls-2">ov</tspan><tspan x="511.84" y="0">os</tspan></text><text class="cls-3" transform="translate(634.01 580.33)">t<tspan class="cls-4" x="67.72" y="0">r</tspan><tspan x="134.56" y="0">es amo</tspan><tspan class="cls-5" x="730.56" y="0">r</tspan><tspan class="cls-6" x="797.4" y="0">es</tspan></text><text class="cls-7" transform="translate(791.63 545.3)">ˆ</text><path class="cls-8" d="M446.41,143.63C389.72,54.23,323,.86,268,.86,212.43.86,145.54,54.24,89,143.65,33.82,231,.86,332.51.86,415.18c0,84.51,27.05,154.18,78.25,201.49,47.37,43.78,112.67,66.92,188.86,66.92s141.49-23.14,188.86-66.92c51.19-47.31,78.25-117,78.25-201.49C535.08,332.71,501.93,231.19,446.41,143.63Z"/><ellipse class="cls-9" cx="275.64" cy="535.57" rx="78.08" ry="155.11" transform="translate(-267.64 795.67) rotate(-88.35)"/><path class="cls-10" d="M403.77,322.9a44.49,44.49,0,0,1,2.32,25.27c-3.6,17.42-16.76,26.49-19.58,28.35,3.91-5.87,9.93-16.64,10.93-30a51.94,51.94,0,0,0-.54-12.28c-1.4-8.56-5-16.8-6.39-16.49-1.26.27,1.05,6.68-1,16.12-2.17,10-7.87,17.19-11,21.13a76.57,76.57,0,0,1-7.84,8.38,107.31,107.31,0,0,1-17.56,13.95,90.17,90.17,0,0,1-11.76,6.18A85.2,85.2,0,0,1,328,388l-11.49,1.75-8.74-.11-3.86.68-2.89.19L313.54,392l5.6,1.54,3.91,1.46,4.1,1.89,5.76,3.43,3,2,3.18,2.7,2.69,2.78,4.57,6.48,2,4.13,1.52,4.37,1.32,8.28-.24,4.22-1,5.51-1.82,5.91-2.21,5-4,6.71-4.85,5.82-4.57,4.33L326.81,473l-5.4,3.36-4.62,2.27-4.74,1.91-4,1.64-3.81,1.21,5.52-.68,5.72-.24,4.07.12,4.5.36,8.85,1.49,6.84,2.21,4.77,2.15,6.51,3.78,6.92,6.07,4.11,5.53,3.22,6.62,2.07,8.21.29,6.57-.73,5.67-2.19,7-3.41,7-3.82,5.31-4.92,5.47-6.66,5.69-8.3,5.31-2.41,1.26-5.41,2.9L340,567.59l8.47-3.64,8.22-4.1,21.25-13.69,9.66-8,16.67-17.38,10.27-14,11.69-21.29L430.87,474l4.71-15.53,1.29-5.63.87-4.49.71-4.33,1-7.9.62-8.41.17-7.44-.22-8.12-.42-5.84-.75-6.52-.56-3.75-1.08-5.83-1-4.64-1-3.9L434.11,378,432,371.37l-1.86-5-2.53-6-2.38-5.07-3.56-6.79-2.39-4.12-2.61-4.21L413.86,336l-5.15-7-4.94-6.08"/><path class="cls-11" d="M306.59,483.37c.63-.09,2-.3,2.69-.38,2.53-.33,4.12-.18,12.28.06h0c2,.15,4.16.4,6.46.76A52.37,52.37,0,0,1,341.74,488c4.59,2.14,13.66,6.35,19.83,16.46a38.09,38.09,0,0,1,5.61,20.08A38.9,38.9,0,0,1,363.62,540c-5,11.93-13.76,18.69-18.2,22a68.8,68.8,0,0,1-8.3,5.32c-10.1,5.52-19.36,7.42-26,8.73-4.17.82-7.74,1.28-9.64,1.52-3,.38-7.26.83-12.37,1.07-2.46.12-5.65.21-9.38.17a151.38,151.38,0,0,1-20.72-1.7,165.88,165.88,0,0,1-23.45-5.56C202.42,561,177.13,539,174.36,536.48a148.77,148.77,0,0,1-27-32.12,145.07,145.07,0,0,1-7.44-13.51c-1.47-3-3-6.16-4.42-9.62-1.8-4.24-3-7.49-3.31-8.42-.9-2.51-2.06-5.74-3.23-10.11-.69-2.57-1.12-4.54-1.5-6.28-.86-3.94-1.34-6.91-1.81-9.76-.49-3.05-1-6.23-1.46-10.52-.27-2.58-.44-4.74-.54-6.26-.24-3.65-.3-6.42-.32-7.17,0-2.09,0-5,.1-8.58.06-1.61.23-4.95.67-9.22.71-6.86,1.72-12,2-13.11.66-3.29,1.31-5.75,2.59-10.69s2-7.31,2.56-8.91c.32-1,1-2.94,1.93-5.45.43-1.14.84-2.15,1.46-3.68.52-1.3,1.13-2.8,1.48-3.64,1.46-3.49,3-6.58,3.84-8.26.92-1.85,2.56-5,4.75-8.83.84-1.45,1.56-2.65,2-3.43.85-1.4,2-3.31,3.53-5.53.66-1,2-2.94,3.65-5.26,3.41-4.72,6.46-8.38,8-10.21,4.26-5,8.06-8.88,10.67-11.42,3.07-3,5.69-5.3,7.36-6.74,2.2-1.89,4-3.33,4.95-4.08s3.42-2.64,5.71-4.33c1-.71,1.61-1.16,2.17-1.55s1.16-.8,2.21-1.49l2.22-1.47.89-.56.11-.07.12-.08.11-.08.09-.06.11-.07s0,0,.06,0,0,0,0,.07a.28.28,0,0,0,0,.08.75.75,0,0,0,0,.11,2.33,2.33,0,0,0-.05.35c-.06.41-.09.62-.11.72,0,.36,0,.25-.12,1,0,.27-.06.47-.07.54s-.08.59-.13,1.21c0,0-.16,1.45-.27,2.92a108.59,108.59,0,0,0,0,14.48,94.85,94.85,0,0,0,2.37,14.76,93.17,93.17,0,0,0,7.39,19.52A97.77,97.77,0,0,0,214.63,353a80.64,80.64,0,0,0,29,26.38,98.18,98.18,0,0,0,17.88,7.9,67.58,67.58,0,0,0,16.69,3.65c3.82.28,6.79.59,8.66.66a142,142,0,0,0,14.57-.34c12.21-.46,22.41,4.55,25.25,6,3.9,2,11.85,6.09,17.64,14.75a38.9,38.9,0,0,1,5.12,11.1,37.93,37.93,0,0,1,1.25,10.27,49.84,49.84,0,0,1-12.55,29.55c-2.07,2.33-4.54,4.59-4.54,4.59a65.9,65.9,0,0,1-7.26,5.76,73,73,0,0,1-7.42,4.47,60.66,60.66,0,0,1-9.72,4.25c-.86.28-1.87.59-2.81.88"/><path class="cls-12" d="M309.69,483.61c0,.09.62.18,1.17.28a29.51,29.51,0,0,1,4.89,1.45c2.09.73,3.58,1.39,5.95,2.46,3,1.35,4.53,2,5.83,2.75a77.76,77.76,0,0,1,7.1,4.87c1.49,1.09,2.69,2,4.09,3.23.58.52,1.34,1.19,2.28,2.14a38.22,38.22,0,0,1,4,4.88c.9,1.29,1.43,2.23,2.34,3.8a48.3,48.3,0,0,1,3.85,7.68,42.3,42.3,0,0,1,1.67,5.75,36.22,36.22,0,0,1,.7,4.17,39.5,39.5,0,0,1,.15,5.29,42.74,42.74,0,0,1-.38,6.1,37.69,37.69,0,0,1-1.5,6.28,40.47,40.47,0,0,1-1.66,4.31c-.51,1.12-1.09,2.17-2.26,4.28s-1.64,3-2.36,4.08A37.48,37.48,0,0,1,343,561a29.4,29.4,0,0,1-3.29,3.48c-1.25,1.13-2.11,1.68-2.06,1.75a47.25,47.25,0,0,0,4.77-2.87c1.53-1,2.3-1.47,3-2a45.44,45.44,0,0,0,4.5-3.71c1.46-1.33,2.59-2.51,3.35-3.32a41.14,41.14,0,0,0,3.59-4.25,44.82,44.82,0,0,0,2.46-3.87,62.45,62.45,0,0,0,3.44-6.22,40.56,40.56,0,0,0,2.33-6.67,36.18,36.18,0,0,0,1.11-6.5,37.84,37.84,0,0,0-.46-8.72,39.63,39.63,0,0,0-1.84-7,36.06,36.06,0,0,0-7.84-12.46,37.29,37.29,0,0,0-5.11-4.35,51.29,51.29,0,0,0-11.26-6.35,54.92,54.92,0,0,0-5.87-2,59.29,59.29,0,0,0-5.91-1.32c-.41-.07-2.17-.37-4.53-.61-.83-.08-2.45-.18-5.67-.36-2.32-.14-3.08-.18-4.2-.19C313.34,483.44,309.7,483.4,309.69,483.61Z"/><path class="cls-12" d="M308.81,481c.44.7,6.59-2.37,7.89-3,2.36-1.18,4.13-2.27,5.72-3.24,1.27-.78,3.56-2.19,6.36-4.28a46.11,46.11,0,0,0,6-4.93,56.47,56.47,0,0,0,5.83-7.27,48.93,48.93,0,0,0,2.9-4.33,46.67,46.67,0,0,0,2.22-4.36,37.78,37.78,0,0,0,1.53-3.68c.17-.48.15-.46,1.12-3.77.66-2.23.77-2.58.91-3.28a22.43,22.43,0,0,0,.36-3.17,34.63,34.63,0,0,0-1.77-13.85,48.89,48.89,0,0,0-3.63-8.24,30.29,30.29,0,0,0-1.73-2.9,24.78,24.78,0,0,0-1.9-2.41,31.9,31.9,0,0,0-3.5-3.42c-.73-.62-.63-.48-2.5-2-1.54-1.23-1.53-1.26-2.1-1.68a28.18,28.18,0,0,0-3.2-2c-.47-.27-1.66-.94-3.27-1.72-.53-.26-2-1-3.76-1.66a55.59,55.59,0,0,0-9.33-2.79,54.44,54.44,0,0,0-7.7-1c-4.63-.29-4.9.23-8.26.05-.17,0-.7-.13-.79.06s.44.76,1,1.08a6.61,6.61,0,0,0,1.48.45c.59.17,1,.32,1.5.47l1.3.47c.91.33,1.59.6,1.83.7.84.34,1.51.64,1.89.81.79.36,1.48.69,2,1,1,.49,1.72.89,2,1.07,1.26.7,2.25,1.31,2.87,1.71,1.46.92,2.54,1.71,3,2.05a48.3,48.3,0,0,1,4.19,3.49,46.1,46.1,0,0,1,6.54,7.55,44,44,0,0,1,3.52,6.12,41.67,41.67,0,0,1,2.06,5.22,43.05,43.05,0,0,1,1.36,5.42c.17.92.39,2.27.54,3.92.1,1.1.18,2.52.18,4.16a45.61,45.61,0,0,1-.31,5,47.89,47.89,0,0,1-1.05,5.75,51,51,0,0,1-2.59,7.64,54.79,54.79,0,0,1-5,9C317.63,475.28,308.26,480.09,308.81,481Z"/><path class="cls-13" d="M186.36,376c-1.81,4.51-4.45,11.12-10.25,13.46-6,2.41-12.23-1-12.57-1.23a21,21,0,0,1-5.52-5c-3.12-3.83-3.43-6.56-5.48-6.82-.5-.06-1.31,0-4.54,2.62-2.7,2.19-4.34,4.05-5.3,4.89-4.41,3.85-6.67,5.82-10.29,7.35-2.34,1-5.6,2.28-9.28,1.26a10.25,10.25,0,0,1-3.36-1.64c-4.25-3.1-6.68-7.36-5.52-12.54a131.64,131.64,0,0,1,4.64-15c3.37-9.53,6.48-19.07,6.18-29.34a5.25,5.25,0,0,1,1.75-3.91c9.34-6.73,12.53-16.83,7.82-27.24-3.2-7.05-7.12-13.8-10.6-20.74-3.85-7.67-4.31-16-3.33-24.1.76-6.35,5.4-11.43,11.48-14.3,4.61-2.16,9.62-4.35,14.62-4.78,17.95-1.53,35.58-.72,51,10.29,9.32,6.66,13.61,16.17,16,26.48,3.35,14.52,3.47,20.67,10.36,49.48.86,3.59,1.62,7.2,2.53,10.78,3.91,15.38,6.15,19.27,5.24,26.41-.4,3.15-.9,7.71-4.32,11.55-5.72,6.41-16.85,8.11-24,4.6-7.81-3.85-10.66-11.61-13.91-10.47C188,368.6,188.38,370.92,186.36,376Z"/><path class="cls-14" d="M197.54,244.55c-25.13-11-50-13.78-74.94,1.28-6.3-3.83-12.09-8.75-14.12-16.51-1.53-5.86-.91-11.53,3.7-16.1a11.84,11.84,0,0,1,16.42-.62c2.16,1.85,3.7,4.36,5.69,6.42.84.87,2.3,2,3.15,1.83s1.87-1.84,2-3c.68-4.35.43-8.92,1.68-13.08,2.06-6.83,5.56-13,13.37-15.33a18.86,18.86,0,0,1,21.44,8.8c2.05,3.87,2.82,8.35,4.34,12.49.57,1.53,1.31,3.47,2.58,4.14.79.42,2.77-1.12,4.14-1.89,2.61-1.47,5-3.57,7.78-4.43,9.57-2.93,16,3.11,14.15,12.68A51.11,51.11,0,0,1,197.54,244.55Z"/><path class="cls-14" d="M126.87,293.42c2.43,6.1,6.36,12.08,7,18.34,1.34,13.36-8.79,20-21.6,16.13-5.24-1.58-6.54-6.32-3.35-11.3a37.11,37.11,0,0,1,6.11-7.46c4.78-4.38,8.55-9.28,10.38-15.49Z"/><path class="cls-15" d="M121.4,284l-25.69-4.3c6.54-5.33,13.67-9.77,22.91-10Z"/><ellipse class="cls-15" cx="150.69" cy="265.85" rx="3.87" ry="5.57"/></g></g></svg>